<svg width="24" height="40" viewBox="0 0 24 40" fill="none" xmlns="http://www.w3.org/2000/svg">
<path fill-rule="evenodd" clip-rule="evenodd" d="M6.53833 31.997H0V2.98821C3.50838 4.95568 5.85697 8.53554 6.3354 12.5296L7.26321 21.0651C7.11823 21.0207 7.00223 21.0207 6.85726 21.0207C5.7555 21.0207 4.87112 21.9231 4.87112 22.9881C4.87112 24.1124 5.75551 25.0148 6.85726 25.0148C7.11823 25.0148 7.37921 24.9556 7.58213 24.8521C9.56828 21.5533 10.6122 17.8106 10.6122 13.9793L10.3077 4.0089C10.3077 2.51478 10.8296 1.1243 11.7574 0C12.6998 1.1243 13.2217 2.51478 13.2217 4.0089L12.9172 13.9793C12.9172 17.8106 13.961 21.5977 15.8892 24.8521C16.1502 24.9556 16.4112 25.0148 16.6721 25.0148C17.716 25.0148 18.6148 24.1124 18.6148 22.9881C18.6148 21.9231 17.716 21.0207 16.6721 21.0207C16.5271 21.0207 16.3677 21.0207 16.2082 21.0651L17.194 12.5296C17.6724 8.47631 20.021 4.95568 23.5294 2.98821V31.997H16.933C16.4691 34.6153 15.1064 36.9526 13.0187 38.6686C12.8593 38.7722 12.6998 38.8757 12.5548 39.0385C12.2359 39.3047 11.9749 39.6302 11.7574 40C11.5545 39.6302 11.2935 39.3047 10.9746 39.0385C10.8296 38.9348 10.6122 38.7722 10.4527 38.6686C8.42301 37.0118 7.00223 34.6153 6.53833 31.997ZM3.02995 22.0266C3.34888 20.858 4.08829 19.8965 5.13209 19.4083L4.39268 12.7959C4.1318 10.7249 3.30536 8.74258 1.94264 7.14493V22.0266H3.02995V22.0266ZM1.94264 23.9941H3.02995C3.50839 25.7545 5.01609 26.9822 6.79931 26.9822C6.48038 27.9437 6.37891 28.9645 6.37891 30.0296H1.94263V23.994L1.94264 23.9941ZM10.7716 30.0296C10.7716 28.7426 9.8873 27.6775 8.68399 27.5148C8.42302 28.3136 8.32155 29.1716 8.32155 30.0296H10.7716ZM8.62595 31.997H10.7716V36.213C9.66984 35.0444 8.88692 33.5947 8.62595 31.997ZM14.8454 31.997H12.7577V36.213C13.8596 35.0444 14.5845 33.5947 14.8454 31.997ZM15.1644 30.0296C15.1644 29.1716 15.0629 28.3136 14.8454 27.5148C13.6421 27.6775 12.7577 28.7426 12.7577 30.0296H15.1644ZM9.46682 25.5473C10.5687 23.6242 11.2355 22.0266 11.7574 20.0591C12.2938 22.0266 12.9608 23.7278 14.0191 25.6065L11.656 27.145L9.46682 25.5473ZM17.1505 30.0296C17.1505 29.0089 16.9911 28.003 16.7301 26.9822C18.5133 26.9822 20.021 25.7545 20.4414 23.9941H21.5433V30.0296H17.1505V30.0296ZM20.4414 22.0119H21.5433V7.13021C20.2385 8.72786 19.3976 10.6509 19.1367 12.7515L18.3538 19.4083C19.3976 19.9409 20.1805 20.858 20.4414 22.0119V22.0119Z" fill="#FFE358"/>
</svg>
